HIERARCHY
ROOT Hips
{
	OFFSET -3.958830 18.904000 13.208200
	CHANNELS 6 Xposition Yposition Zposition Zrotation Yrotation Xrotation 
	JOINT LHipJoint
	{
		OFFSET 0.000000 0.000000 0.000000
		CHANNELS 3 Zrotation Yrotation Xrotation
		JOINT LeftUpLeg
		{
			OFFSET 1.800000 -1.400000 0.085000
			CHANNELS 3 Zrotation Yrotation Xrotation
			JOINT LeftLeg
			{
				OFFSET 2.215000 -6.000000 0.000000
				CHANNELS 3 Zrotation Yrotation Xrotation
				JOINT LeftFoot
				{
					OFFSET 2.500000 -6.900000 0.000000
					CHANNELS 3 Zrotation Yrotation Xrotation
					JOINT LeftToeBase
					{
						OFFSET 0.200000 -0.500000 1.950000
						CHANNELS 3 Zrotation Yrotation Xrotation
						End Site
						{
							OFFSET 0.000000 0.000000 0.000000
						}
					}
				}
			}
		}
	}
	JOINT RHipJoint
	{
		OFFSET 0.000000 0.000000 0.000000
		CHANNELS 3 Zrotation Yrotation Xrotation
		JOINT RightUpLeg
		{
			OFFSET -1.800000 -1.400000 0.085000
			CHANNELS 3 Zrotation Yrotation Xrotation
			JOINT RightLeg
			{
				OFFSET -2.215000 -6.000000 0.000000
				CHANNELS 3 Zrotation Yrotation Xrotation
				JOINT RightFoot
				{
					OFFSET -2.500000 -6.900000 0.000000
					CHANNELS 3 Zrotation Yrotation Xrotation
					JOINT RightToeBase
					{
						OFFSET -0.200000 -0.500000 1.950000
						CHANNELS 3 Zrotation Yrotation Xrotation
						End Site
						{
							OFFSET 0.000000 0.000000 0.000000
						}
					}
				}
			}
		}
	}
	JOINT LowerBack
	{
		OFFSET 0.000000 0.000000 0.000000
		CHANNELS 3 Zrotation Yrotation Xrotation
		JOINT Spine
		{
			OFFSET -0.087000 1.940000 -0.288900
			CHANNELS 3 Zrotation Yrotation Xrotation
			JOINT Spine1
			{
				OFFSET 0.000000 1.950000 0.060000
				CHANNELS 3 Zrotation Yrotation Xrotation
				JOINT Neck
				{
					OFFSET 0.000000 0.000000 0.000000
					CHANNELS 3 Zrotation Yrotation Xrotation
					JOINT Neck1
					{
						OFFSET 0.000000 1.600000 0.340000
						CHANNELS 3 Zrotation Yrotation Xrotation
						JOINT Head
						{
							OFFSET 0.000000 1.667000 -0.240000
							CHANNELS 3 Zrotation Yrotation Xrotation
							End Site
							{
								OFFSET 0.000000 0.000000 0.000000
							}
						}
					}
				}
				JOINT LeftShoulder
				{
					OFFSET 0.000000 0.000000 0.000000
					CHANNELS 3 Zrotation Yrotation Xrotation
					JOINT LeftArm
					{
						OFFSET 2.700000 1.550000 -0.730000
						CHANNELS 3 Zrotation Yrotation Xrotation
						JOINT LeftForeArm
						{
							OFFSET 5.450000 0.000000 0.000000
							CHANNELS 3 Zrotation Yrotation Xrotation
							JOINT LeftHand
							{
								OFFSET 3.450000 0.000000 0.000000
								CHANNELS 3 Zrotation Yrotation Xrotation
								JOINT LeftHandIndex1
								{
									OFFSET 0.750000 0.000000 0.000000
									CHANNELS 3 Zrotation Yrotation Xrotation
									End Site
									{
										OFFSET 0.000000 0.000000 0.000000
									}
								}
							}
						}
					}
				}
				JOINT RightShoulder
				{
					OFFSET 0.000000 0.000000 0.000000
					CHANNELS 3 Zrotation Yrotation Xrotation
					JOINT RightArm
					{
						OFFSET -2.700000 1.550000 -0.730000
						CHANNELS 3 Zrotation Yrotation Xrotation
						JOINT RightForeArm
						{
							OFFSET -5.450000 0.000000 0.000000
							CHANNELS 3 Zrotation Yrotation Xrotation
							JOINT RightHand
							{
								OFFSET -3.450000 0.000000 0.000000
								CHANNELS 3 Zrotation Yrotation Xrotation
								JOINT RightHandIndex1
								{
									OFFSET -0.750000 0.000000 0.000000
									CHANNELS 3 Zrotation Yrotation Xrotation
									End Site
									{
										OFFSET 0.000000 0.000000 0.000000
									}
								}
							}
						}
					}
				}
			}
		}
	}
}
MOTION
Frames: 4
Frame Time: 0.016667
-0.352100 17.337880 -3.692910 -0.329885 18.375169 -6.082041 -14.379541 11.849542 2.917979 0.502687 -1.378620 -8.500161 -9.742508 5.333840 10.251350 -0.754051 3.632286 3.300490 0.589560 0.531150 0.316310 18.923041 -12.495066 3.096044 -6.072178 2.896553 -12.006796 13.817394 -9.395366 26.937109 -0.866105 -5.316838 2.331108 0.370690 0.046310 0.146900 -6.178805 3.523509 -8.213116 23.348884 -2.612514 33.138279 -15.372792 2.279746 22.997318 5.244174 -2.065791 -11.249454 -3.052759 -0.575188 47.833021 7.564310 -5.734730 -31.635570 -17.222108 -32.134661 10.092102 -4.711020 -9.712359 -3.833755 5.611122 -22.202406 -1.564482 -3.472796 2.787110 0.748080 -0.193290 0.252540 0.041440 9.254037 37.428302 3.964072 32.338226 53.277291 1.183649 -27.549737 83.898607 -25.028602 1.421404 0.114884 -0.128480 0.501230 0.108170 -0.152610 
-0.350180 17.331750 -3.692410 -0.228538 18.495986 -6.077670 -14.379718 11.837848 2.921184 0.452378 -1.390165 -8.469116 -9.881212 5.369596 10.279446 -0.746541 3.647527 3.295950 0.589330 0.531980 0.313010 18.924399 -12.489353 3.093580 -6.278562 2.963107 -12.178537 13.964489 -9.517789 27.289975 -0.872543 -5.373259 2.309810 0.371270 0.047660 0.145970 -6.185771 3.533410 -8.215628 23.310532 -2.668778 33.168657 -15.509214 2.199817 22.988960 5.258096 -2.128830 -11.202189 -3.169479 -0.519134 47.706944 7.605460 -5.792740 -31.549790 -17.232355 -32.111392 10.131302 -4.616298 -9.684037 -3.748652 5.805331 -21.718468 -1.573067 -3.476747 2.788821 0.743490 -0.192860 0.249980 0.043420 9.243209 37.412439 3.868765 32.363752 53.290660 1.293914 -30.241435 84.238551 -27.142082 1.409590 0.233442 -0.127110 0.500010 0.107260 -0.149990 
-0.346230 17.321390 -3.691340 -0.069074 18.731398 -6.085051 -14.377001 11.811423 2.922091 0.378554 -1.407451 -8.405967 -10.113864 5.431212 10.334573 -0.731065 3.673033 3.289753 0.590270 0.534670 0.306630 18.930876 -12.481065 3.091492 -6.656999 3.098684 -12.497034 14.257853 -9.765374 27.987583 -0.888600 -5.487696 2.267456 0.371880 0.050730 0.144780 -6.208826 3.566649 -8.220263 23.333126 -2.809304 33.214834 -15.818775 2.033966 22.990686 5.277259 -2.272240 -11.132538 -3.447687 -0.417714 47.542332 7.749380 -5.944630 -31.408710 -17.244021 -32.065490 10.196891 -4.457789 -9.616937 -3.616730 6.176055 -20.899296 -1.593354 -3.482321 2.793027 0.735140 -0.193020 0.246080 0.048880 9.230029 37.368548 3.723817 32.434556 53.337953 1.467169 -35.192865 84.815192 -31.061841 1.384514 0.471700 -0.123060 0.498540 0.104770 -0.143890 
-0.340920 17.308910 -3.689380 0.118002 19.013388 -6.083838 -14.369617 11.770076 2.921712 0.306008 -1.428423 -8.307355 -10.437978 5.508892 10.360931 -0.720868 3.716685 3.277339 0.584690 0.526480 0.294990 18.944475 -12.475284 3.087905 -7.089225 3.251074 -12.864178 14.557960 -10.045379 28.769370 -0.902356 -5.620103 2.218764 0.370170 0.060180 0.143780 -6.249362 3.628461 -8.225173 23.456810 -3.002676 33.231371 -16.283601 1.847105 23.028518 5.285664 -2.480848 -11.091481 -3.860986 -0.273029 47.374496 8.018850 -6.176790 -31.206320 -17.267239 -32.059575 10.282539 -4.259509 -9.496511 -3.490553 6.730922 -19.955453 -1.645845 -3.494442 2.791957 0.730160 -0.190540 0.237260 0.052300 9.247124 37.355832 3.613099 32.437395 53.352837 1.508928 -41.682214 85.483161 -36.240036 1.345577 0.832250 -0.125810 0.499550 0.109050 -0.138800 
